PathFileType   4   (X/Y/Z)
DataRate	CameraRate	NumFrames	NumMarkers	Units	OrigDataRate	OrigDataStartFrame	OrigNumFrames
120.0	120.0	6	37	mm	120.0	26	206
Frame#	Time	midhip	hip_r	hip_l	knee_r	knee_l	ankle_r	ankle_l	midasis	asis_r	asis_l	psis_r	psis_l	epicondLat_r	epicondLat_l	epicondMed_r	epicondMed_l	malleolusLat_r	malleolusLat_l	malleolusMedv_r	malleolusMedv_l	neck	subclavicle_r	subclavicle_l	sternalnotch	xyphoidprocess	thighwand_r	thighwand_l	upperleg1_r	upperleg1_l	upperleg2_r	upperleg2_l	shankwand_r	shankwand_l	lowerleg1_r	lowerleg1_l	toe_r	toe_l
 	 	X1	Y1	Z1	X2	Y2	Z2	X3	Y3	Z3	X4	Y4	Z4	X5	Y5	Z5	X6	Y6	Z6	X7	Y7	Z7	X8	Y8	Z8	X9	Y9	Z9	X10	Y10	Z10	X11	Y11	Z11	X12	Y12	Z12	X13	Y13	Z13	X14	Y14	Z14	X15	Y15	Z15	X16	Y16	Z16	X17	Y17	Z17	X18	Y18	Z18	X19	Y19	Z19	X20	Y20	Z20	X21	Y21	Z21	X22	Y22	Z22	X23	Y23	Z23	X24	Y24	Z24	X25	Y25	Z25	X26	Y26	Z26	X27	Y27	Z27	X28	Y28	Z28	X29	Y29	Z29	X30	Y30	Z30	X31	Y31	Z31	X32	Y32	Z32	X33	Y33	Z33	X34	Y34	Z34	X35	Y35	Z35	X36	Y36	Z36	X37	Y37	Z37

	26	0.36667	1495.371	636.034	-193.359	1485.208	649.533	-140.838	1515.087	648.062	-254.409	1565.085	359.666	-91.116	1515.595	347.404	-232.355	1448.374	90.772	-88.599	1508.283	55.608	-227.839	1535.220	715.879	-189.265	1512.926	716.977	-104.527	1557.514	714.782	-274.003	1392.679	717.751	-179.415	1413.169	714.120	-260.768	1547.299	362.030	-48.760	1522.179	343.937	-279.774	1585.880	352.865	-132.131	1499.509	352.834	-194.129	1435.814	96.509	-58.077	1502.264	55.265	-259.774	1460.997	89.053	-113.810	1502.065	57.318	-194.635	1421.291	1038.919	-250.341	1511.029	989.993	-178.993	1527.446	978.101	-268.010	1502.031	995.744	-220.255	1559.131	867.762	-197.968	1662.426	477.964	-84.562	1595.116	429.564	-329.797	1572.750	508.689	-72.091	1575.348	486.485	-251.899	1583.992	422.275	-61.162	1564.471	402.857	-231.976	1471.736	166.521	12.684	1599.231	165.750	-197.252	1500.736	224.876	-47.452	1540.121	219.748	-225.691	1520.656	54.124	-55.198	1592.383	37.523	-218.848
	27	0.37500	1498.403	635.795	-193.322	1488.488	649.512	-140.858	1517.873	647.614	-254.552	1572.330	360.531	-91.727	1517.359	347.093	-231.665	1467.688	86.823	-83.812	1508.148	55.585	-227.019	1538.215	715.715	-189.771	1516.297	717.131	-104.972	1560.132	714.300	-274.570	1395.615	717.431	-179.138	1415.661	713.580	-260.652	1555.172	362.799	-49.107	1524.135	343.473	-279.046	1591.547	354.031	-133.399	1500.283	353.038	-193.446	1455.404	92.406	-53.149	1502.313	55.259	-258.989	1479.648	85.257	-109.199	1502.275	56.706	-193.657	1424.235	1038.642	-250.613	1514.140	989.459	-179.670	1530.189	977.546	-268.690	1505.081	995.263	-220.890	1561.856	867.114	-198.809	1667.820	480.039	-87.066	1597.533	428.883	-328.988	1577.979	509.826	-73.252	1577.581	485.903	-251.267	1590.116	423.411	-62.435	1565.891	402.323	-231.031	1489.426	164.957	15.994	1599.821	164.944	-195.887	1514.472	223.726	-45.430	1541.010	219.159	-224.388	1542.074	53.923	-51.699	1592.403	37.473	-218.436
	28	0.38333	1501.328	635.472	-193.295	1491.699	649.411	-140.867	1520.542	647.097	-254.691	1579.376	361.371	-92.327	1519.398	346.771	-230.889	1487.311	83.375	-79.124	1508.055	55.547	-226.242	1541.106	715.482	-190.280	1519.598	717.207	-105.400	1562.615	713.756	-275.160	1398.488	717.020	-178.835	1418.064	712.952	-260.532	1562.837	363.561	-49.459	1526.410	342.993	-278.224	1597.147	355.143	-134.528	1501.543	353.411	-192.553	1475.323	88.808	-48.318	1502.374	55.257	-258.241	1498.581	81.860	-104.692	1502.464	56.198	-192.785	1427.345	1038.337	-250.805	1517.261	988.772	-180.255	1533.029	976.897	-269.372	1508.121	994.677	-221.486	1564.505	866.281	-199.682	1672.928	481.999	-89.517	1600.239	428.237	-328.097	1582.839	510.860	-74.340	1580.161	485.473	-250.552	1596.067	424.584	-63.621	1567.732	401.996	-229.955	1507.282	163.818	19.213	1600.587	163.997	-194.592	1528.291	222.722	-43.396	1542.198	218.521	-223.175	1563.638	54.321	-48.277	1592.468	37.435	-218.031
	29	0.39167	1504.136	635.080	-193.260	1494.849	649.249	-140.862	1523.098	646.530	-254.827	1586.220	362.196	-92.882	1521.739	346.442	-230.067	1507.186	80.499	-74.616	1508.020	55.498	-225.548	1543.898	715.198	-190.793	1522.833	717.225	-105.812	1564.963	713.171	-275.774	1401.294	716.532	-178.507	1420.386	712.252	-260.406	1570.299	364.333	-49.778	1529.006	342.508	-277.350	1602.727	355.976	-135.368	1504.319	353.340	-191.205	1495.519	85.780	-43.660	1502.460	55.263	-257.568	1517.809	78.948	-100.253	1502.681	55.694	-192.089	1430.612	1037.874	-250.862	1520.486	987.970	-180.830	1535.943	976.184	-270.087	1511.182	994.002	-222.040	1567.288	865.359	-200.645	1677.765	483.871	-91.915	1603.200	427.634	-327.184	1587.525	511.721	-75.600	1582.703	485.169	-249.794	1601.847	425.743	-64.736	1570.494	401.977	-228.730	1525.258	163.123	22.306	1601.543	162.920	-193.414	1542.216	221.887	-41.370	1543.868	217.893	-222.182	1585.302	55.360	-45.003	1592.573	37.410	-217.661
	30	0.40000	1506.842	634.646	-193.227	1497.946	649.041	-140.854	1525.558	645.936	-254.965	1592.864	363.021	-93.361	1524.400	346.104	-229.233	1527.263	78.246	-70.348	1508.052	55.444	-224.959	1546.598	714.883	-191.312	1526.006	717.199	-106.211	1567.190	712.568	-276.412	1404.037	715.984	-178.155	1422.636	711.495	-260.270	1577.560	365.137	-50.033	1531.909	342.021	-276.466	1608.042	356.492	-135.848	1508.736	351.794	-189.924	1515.928	83.371	-39.244	1502.586	55.280	-256.995	1537.388	76.642	-95.903	1502.751	55.261	-191.603	1433.878	1037.383	-250.899	1523.736	987.110	-181.446	1538.755	975.392	-270.798	1514.262	993.257	-222.552	1569.981	864.349	-201.647	1682.361	485.680	-94.249	1606.357	427.070	-326.314	1592.247	512.502	-77.126	1584.438	484.685	-248.631	1607.374	426.886	-65.771	1574.027	402.074	-227.514	1543.276	162.899	25.241	1602.686	161.735	-192.366	1556.224	221.427	-39.440	1545.819	217.361	-221.314	1607.010	57.065	-41.952	1592.712	37.395	-217.347
	31	0.40833	1509.510	634.204	-193.220	1501.002	648.802	-140.859	1527.948	645.336	-255.118	1599.316	363.859	-93.738	1527.382	345.749	-228.413	1547.491	76.646	-66.366	1508.154	55.385	-224.477	1549.223	714.557	-191.841	1529.121	717.142	-106.602	1569.325	711.972	-277.079	1406.717	715.390	-177.787	1424.830	710.699	-260.120	1584.628	365.991	-50.198	1535.079	341.528	-275.603	1613.111	357.073	-136.175	1513.515	349.277	-189.269	1536.479	81.611	-35.119	1502.767	55.307	-256.527	1557.372	75.109	-91.950	1502.865	55.041	-191.166	1437.148	1036.960	-250.914	1526.996	986.181	-181.998	1541.511	974.516	-271.390	1517.361	992.457	-223.025	1572.506	863.216	-202.567	1686.755	487.446	-96.504	1609.621	426.533	-325.557	1596.678	513.397	-78.507	1585.488	484.040	-247.110	1612.684	428.036	-66.661	1577.538	402.069	-226.466	1561.237	163.173	27.993	1603.994	160.465	-191.439	1570.273	221.443	-37.626	1547.880	216.745	-220.518	1628.695	59.437	-39.190	1592.882	37.383	-217.101
